<?xml version="1.0" encoding="utf-8"?>
<!-- Generator: Adobe Illustrator 28.0.0, SVG Export Plug-In . SVG Version: 6.00 Build 0)  -->
<svg version="1.1" id="图层_1" xmlns="http://www.w3.org/2000/svg" xmlns:xlink="http://www.w3.org/1999/xlink" x="0px" y="0px"
	 viewBox="0 0 595.28 333.94" style="enable-background:new 0 0 595.28 333.94;" xml:space="preserve">
<style type="text/css">
	.st0{opacity:0.97;}
</style>
<path class="st0" d="M70.97,279.62c-1.46,0-3.51-0.13-6.15-0.4l29.28-61.34l-38.91-97.07h27l25.01,66.5l25.01-66.5h27.2
	L107.29,256.4c-3.57,9-8.47,15.05-14.69,18.16C86.38,277.67,79.17,279.35,70.97,279.62z"/>
<path d="M203.32,106.72c-5.14,0-9.58-1.87-13.31-5.6c-3.73-3.73-5.6-8.17-5.6-13.31c0-5.31,1.87-9.78,5.6-13.43
	c3.73-3.65,8.17-5.47,13.31-5.47c5.31,0,9.78,1.83,13.43,5.47c3.65,3.65,5.47,8.13,5.47,13.43c0,5.14-1.83,9.58-5.47,13.31
	C213.1,104.86,208.62,106.72,203.32,106.72z"/>
<rect x="190.71" y="120.82" width="25.21" height="95.88"/>
<path d="M234.38,179.38v-21.44h47.64v21.44H234.38z"/>
<path d="M344.95,219.08c-10.46,0-19.49-2.32-27.1-6.95c-7.61-4.63-13.43-10.75-17.47-18.36c-4.04-7.61-6.05-15.98-6.05-25.11
	c0-9.13,2.02-17.5,6.05-25.11c4.04-7.61,9.86-13.7,17.47-18.26c7.61-4.57,16.64-6.85,27.1-6.85c10.59,0,19.68,2.28,27.29,6.85
	c7.61,4.57,13.43,10.65,17.47,18.26c4.04,7.61,6.05,15.98,6.05,25.11c0,9.13-2.02,17.5-6.05,25.11
	c-4.04,7.61-9.86,13.73-17.47,18.36C364.63,216.76,355.53,219.08,344.95,219.08z M344.95,196.65c5.29,0,9.76-1.29,13.4-3.87
	c3.64-2.58,6.42-5.99,8.34-10.22c1.92-4.23,2.88-8.86,2.88-13.9c0-5.03-0.96-9.63-2.88-13.8c-1.92-4.17-4.7-7.54-8.34-10.12
	c-3.64-2.58-8.11-3.87-13.4-3.87c-5.16,0-9.56,1.29-13.2,3.87c-3.64,2.58-6.42,5.96-8.34,10.12c-1.92,4.17-2.88,8.77-2.88,13.8
	c0,5.03,0.96,9.66,2.88,13.9c1.92,4.24,4.7,7.64,8.34,10.22C335.38,195.35,339.78,196.65,344.95,196.65z"/>
<path d="M479.13,158.73c0-6.62-1.59-11.25-4.76-13.9c-3.18-2.65-7.48-3.97-12.9-3.97c-4.9,0-9.23,1.19-13,3.57
	c-3.77,2.38-6.72,4.96-8.83,7.74v64.51h-25.21v-95.88h25.21v12.31c3.04-3.57,7.44-6.91,13.2-10.02c5.76-3.11,12.54-4.67,20.35-4.67
	c10.59,0,18.43,2.75,23.52,8.24c5.09,5.49,7.64,12.94,7.64,22.33v67.69h-25.21V158.73z"/>
</svg>
